# Recon Drone - 1.0 = 1 Minecraft block, Y up, nose towards -Z
mtllib drone_glow.mtl
v -0.03125 -0.1875 -0.15625
v 0.03125 -0.1875 -0.15625
v 0.03125 -0.1875 -0.09375
v -0.03125 -0.1875 -0.09375
v -0.03125 -0.125 -0.15625
v -0.03125 -0.125 -0.09375
v 0.03125 -0.125 -0.09375
v 0.03125 -0.125 -0.15625
v -0.03125 -0.1875 -0.15625
v -0.03125 -0.125 -0.15625
v 0.03125 -0.125 -0.15625
v 0.03125 -0.1875 -0.15625
v -0.03125 -0.1875 -0.09375
v 0.03125 -0.1875 -0.09375
v 0.03125 -0.125 -0.09375
v -0.03125 -0.125 -0.09375
v 0.03125 -0.1875 -0.15625
v 0.03125 -0.125 -0.15625
v 0.03125 -0.125 -0.09375
v 0.03125 -0.1875 -0.09375
v -0.03125 -0.1875 -0.15625
v -0.03125 -0.1875 -0.09375
v -0.03125 -0.125 -0.09375
v -0.03125 -0.125 -0.15625
v -0.03125 0 0.125
v 0.03125 0 0.125
v 0.03125 0 0.1875
v -0.03125 0 0.1875
v -0.03125 0.0625 0.125
v -0.03125 0.0625 0.1875
v 0.03125 0.0625 0.1875
v 0.03125 0.0625 0.125
v -0.03125 0 0.125
v -0.03125 0.0625 0.125
v 0.03125 0.0625 0.125
v 0.03125 0 0.125
v -0.03125 0 0.1875
v 0.03125 0 0.1875
v 0.03125 0.0625 0.1875
v -0.03125 0.0625 0.1875
v 0.03125 0 0.125
v 0.03125 0.0625 0.125
v 0.03125 0.0625 0.1875
v 0.03125 0 0.1875
v -0.03125 0 0.125
v -0.03125 0 0.1875
v -0.03125 0.0625 0.1875
v -0.03125 0.0625 0.125
vt 0.015625 0.015625
vt 0.078125 0.015625
vt 0.078125 0.078125
vt 0.015625 0.078125
vt 0.0859375 0.015625
vt 0.1484375 0.015625
vt 0.1484375 0.078125
vt 0.0859375 0.078125
vt 0.15625 0.015625
vt 0.21875 0.015625
vt 0.21875 0.078125
vt 0.15625 0.078125
vt 0.2265625 0.015625
vt 0.2890625 0.015625
vt 0.2890625 0.078125
vt 0.2265625 0.078125
vt 0.296875 0.015625
vt 0.359375 0.015625
vt 0.359375 0.078125
vt 0.296875 0.078125
vt 0.3671875 0.015625
vt 0.4296875 0.015625
vt 0.4296875 0.078125
vt 0.3671875 0.078125
vt 0.4375 0.015625
vt 0.5 0.015625
vt 0.5 0.078125
vt 0.4375 0.078125
vt 0.5078125 0.015625
vt 0.5703125 0.015625
vt 0.5703125 0.078125
vt 0.5078125 0.078125
vt 0.578125 0.015625
vt 0.640625 0.015625
vt 0.640625 0.078125
vt 0.578125 0.078125
vt 0.6484375 0.015625
vt 0.7109375 0.015625
vt 0.7109375 0.078125
vt 0.6484375 0.078125
vt 0.71875 0.015625
vt 0.78125 0.015625
vt 0.78125 0.078125
vt 0.71875 0.078125
vt 0.7890625 0.015625
vt 0.8515625 0.015625
vt 0.8515625 0.078125
vt 0.7890625 0.078125
vn 0 -1 0
vn 0 1 0
vn 0 0 -1
vn 0 0 1
vn 1 0 0
vn -1 0 0
vn 0 -1 0
vn 0 1 0
vn 0 0 -1
vn 0 0 1
vn 1 0 0
vn -1 0 0
# pivot: 0 -0.15625 -0.125
g gimbal_lens
usemtl drone_glow_mat
f 1/1/1 2/2/1 3/3/1 4/4/1
f 5/5/2 6/6/2 7/7/2 8/8/2
f 9/9/3 10/10/3 11/11/3 12/12/3
f 13/13/4 14/14/4 15/15/4 16/16/4
f 17/17/5 18/18/5 19/19/5 20/20/5
f 21/21/6 22/22/6 23/23/6 24/24/6
# pivot: 0 0 0.125
g tail_light
usemtl drone_glow_mat
f 25/25/7 26/26/7 27/27/7 28/28/7
f 29/29/8 30/30/8 31/31/8 32/32/8
f 33/33/9 34/34/9 35/35/9 36/36/9
f 37/37/10 38/38/10 39/39/10 40/40/10
f 41/41/11 42/42/11 43/43/11 44/44/11
f 45/45/12 46/46/12 47/47/12 48/48/12
