# Recon Drone - 1.0 = 1 Minecraft block, Y up, nose towards -Z
mtllib drone.mtl
v -0.109375 -0.03125 -0.1875
v 0.109375 -0.03125 -0.1875
v 0.109375 -0.09375 -0.1875
v -0.109375 -0.09375 -0.1875
v -0.1328125 -0.09375 0.125
v 0.1328125 -0.09375 0.125
v 0.1328125 -0.03125 0.125
v -0.1328125 -0.03125 0.125
v -0.109375 -0.09375 -0.1875
v 0.109375 -0.09375 -0.1875
v 0.1328125 -0.09375 0.125
v -0.1328125 -0.09375 0.125
v -0.109375 -0.03125 -0.1875
v -0.1328125 -0.03125 0.125
v 0.1328125 -0.03125 0.125
v 0.109375 -0.03125 -0.1875
v -0.109375 -0.09375 -0.1875
v -0.1328125 -0.09375 0.125
v -0.1328125 -0.03125 0.125
v -0.109375 -0.03125 -0.1875
v 0.109375 -0.09375 -0.1875
v 0.109375 -0.03125 -0.1875
v 0.1328125 -0.03125 0.125
v 0.1328125 -0.09375 0.125
v -0.109375 0.03125 -0.203125
v 0.109375 0.03125 -0.203125
v 0.109375 -0.03125 -0.203125
v -0.109375 -0.03125 -0.203125
v -0.1484375 -0.03125 0.140625
v 0.1484375 -0.03125 0.140625
v 0.1484375 0.03125 0.140625
v -0.1484375 0.03125 0.140625
v -0.109375 -0.03125 -0.203125
v 0.109375 -0.03125 -0.203125
v 0.1484375 -0.03125 0.140625
v -0.1484375 -0.03125 0.140625
v -0.109375 0.03125 -0.203125
v -0.1484375 0.03125 0.140625
v 0.1484375 0.03125 0.140625
v 0.109375 0.03125 -0.203125
v -0.109375 -0.03125 -0.203125
v -0.1484375 -0.03125 0.140625
v -0.1484375 0.03125 0.140625
v -0.109375 0.03125 -0.203125
v 0.109375 -0.03125 -0.203125
v 0.109375 0.03125 -0.203125
v 0.1484375 0.03125 0.140625
v 0.1484375 -0.03125 0.140625
v -0.09375 0.09375 -0.171875
v 0.09375 0.09375 -0.171875
v 0.09375 0.03125 -0.171875
v -0.09375 0.03125 -0.171875
v -0.1171875 0.03125 0.109375
v 0.1171875 0.03125 0.109375
v 0.1171875 0.09375 0.109375
v -0.1171875 0.09375 0.109375
v -0.09375 0.03125 -0.171875
v 0.09375 0.03125 -0.171875
v 0.1171875 0.03125 0.109375
v -0.1171875 0.03125 0.109375
v -0.09375 0.09375 -0.171875
v -0.1171875 0.09375 0.109375
v 0.1171875 0.09375 0.109375
v 0.09375 0.09375 -0.171875
v -0.09375 0.03125 -0.171875
v -0.1171875 0.03125 0.109375
v -0.1171875 0.09375 0.109375
v -0.09375 0.09375 -0.171875
v 0.09375 0.03125 -0.171875
v 0.09375 0.09375 -0.171875
v 0.1171875 0.09375 0.109375
v 0.1171875 0.03125 0.109375
v -0.03125 0.15625 -0.15625
v 0.03125 0.15625 -0.15625
v 0.03125 0.09375 -0.15625
v -0.03125 0.09375 -0.15625
v -0.0625 0.09375 -0.03125
v 0.0625 0.09375 -0.03125
v 0.0625 0.15625 -0.03125
v -0.0625 0.15625 -0.03125
v -0.03125 0.09375 -0.15625
v 0.03125 0.09375 -0.15625
v 0.0625 0.09375 -0.03125
v -0.0625 0.09375 -0.03125
v -0.03125 0.15625 -0.15625
v -0.0625 0.15625 -0.03125
v 0.0625 0.15625 -0.03125
v 0.03125 0.15625 -0.15625
v -0.03125 0.09375 -0.15625
v -0.0625 0.09375 -0.03125
v -0.0625 0.15625 -0.03125
v -0.03125 0.15625 -0.15625
v 0.03125 0.09375 -0.15625
v 0.03125 0.15625 -0.15625
v 0.0625 0.15625 -0.03125
v 0.0625 0.09375 -0.03125
v -0.03125 0.0625 -0.265625
v 0.03125 0.0625 -0.265625
v 0.03125 0 -0.265625
v -0.03125 0 -0.265625
v -0.0625 0 -0.171875
v 0.0625 0 -0.171875
v 0.0625 0.0625 -0.171875
v -0.0625 0.0625 -0.171875
v -0.03125 0 -0.265625
v 0.03125 0 -0.265625
v 0.0625 0 -0.171875
v -0.0625 0 -0.171875
v -0.03125 0.0625 -0.265625
v -0.0625 0.0625 -0.171875
v 0.0625 0.0625 -0.171875
v 0.03125 0.0625 -0.265625
v -0.03125 0 -0.265625
v -0.0625 0 -0.171875
v -0.0625 0.0625 -0.171875
v -0.03125 0.0625 -0.265625
v 0.03125 0 -0.265625
v 0.03125 0.0625 -0.265625
v 0.0625 0.0625 -0.171875
v 0.0625 0 -0.171875
v -0.03125 0.09375 0.03125
v 0.03125 0.09375 0.03125
v 0.03125 0.09375 0.09375
v -0.03125 0.09375 0.09375
v -0.03125 0.15625 0.03125
v -0.03125 0.15625 0.09375
v 0.03125 0.15625 0.09375
v 0.03125 0.15625 0.03125
v -0.03125 0.09375 0.03125
v -0.03125 0.15625 0.03125
v 0.03125 0.15625 0.03125
v 0.03125 0.09375 0.03125
v -0.03125 0.09375 0.09375
v 0.03125 0.09375 0.09375
v 0.03125 0.15625 0.09375
v -0.03125 0.15625 0.09375
v 0.03125 0.09375 0.03125
v 0.03125 0.15625 0.03125
v 0.03125 0.15625 0.09375
v 0.03125 0.09375 0.09375
v -0.03125 0.09375 0.03125
v -0.03125 0.09375 0.09375
v -0.03125 0.15625 0.09375
v -0.03125 0.15625 0.03125
v -0.0625 0.15625 0
v 0.0625 0.15625 0
v 0.0625 0.15625 0.125
v -0.0625 0.15625 0.125
v -0.0625 0.21875 0
v -0.0625 0.21875 0.125
v 0.0625 0.21875 0.125
v 0.0625 0.21875 0
v -0.0625 0.15625 0
v -0.0625 0.21875 0
v 0.0625 0.21875 0
v 0.0625 0.15625 0
v -0.0625 0.15625 0.125
v 0.0625 0.15625 0.125
v 0.0625 0.21875 0.125
v -0.0625 0.21875 0.125
v 0.0625 0.15625 0
v 0.0625 0.21875 0
v 0.0625 0.21875 0.125
v 0.0625 0.15625 0.125
v -0.0625 0.15625 0
v -0.0625 0.15625 0.125
v -0.0625 0.21875 0.125
v -0.0625 0.21875 0
v -0.0625 -0.125 -0.09375
v -0.0625 -0.125 -0.15625
v 0.0625 -0.125 -0.15625
v 0.0625 -0.125 -0.09375
v -0.0625 -0.09375 -0.09375
v 0.0625 -0.09375 -0.09375
v 0.0625 -0.09375 -0.15625
v -0.0625 -0.09375 -0.15625
v -0.0625 -0.125 -0.09375
v 0.0625 -0.125 -0.09375
v 0.0625 -0.09375 -0.09375
v -0.0625 -0.09375 -0.09375
v -0.0625 -0.125 -0.15625
v -0.0625 -0.09375 -0.15625
v 0.0625 -0.09375 -0.15625
v 0.0625 -0.125 -0.15625
v -0.0625 -0.125 -0.09375
v -0.0625 -0.09375 -0.09375
v -0.0625 -0.09375 -0.15625
v -0.0625 -0.125 -0.15625
v 0.0625 -0.125 -0.09375
v 0.0625 -0.125 -0.15625
v 0.0625 -0.09375 -0.15625
v 0.0625 -0.09375 -0.09375
v 0.03125 -0.125 -0.15625
v 0.09375 -0.125 -0.15625
v 0.09375 -0.1875 -0.15625
v 0.03125 -0.1875 -0.15625
v 0.03125 -0.125 -0.09375
v 0.03125 -0.1875 -0.09375
v 0.09375 -0.1875 -0.09375
v 0.09375 -0.125 -0.09375
v 0.03125 -0.125 -0.15625
v 0.03125 -0.1875 -0.15625
v 0.03125 -0.1875 -0.09375
v 0.03125 -0.125 -0.09375
v 0.09375 -0.125 -0.15625
v 0.09375 -0.125 -0.09375
v 0.09375 -0.1875 -0.09375
v 0.09375 -0.1875 -0.15625
v 0.03125 -0.125 -0.15625
v 0.03125 -0.125 -0.09375
v 0.09375 -0.125 -0.09375
v 0.09375 -0.125 -0.15625
v 0.03125 -0.1875 -0.15625
v 0.09375 -0.1875 -0.15625
v 0.09375 -0.1875 -0.09375
v 0.03125 -0.1875 -0.09375
v -0.09375 -0.125 -0.15625
v -0.03125 -0.125 -0.15625
v -0.03125 -0.1875 -0.15625
v -0.09375 -0.1875 -0.15625
v -0.09375 -0.125 -0.09375
v -0.09375 -0.1875 -0.09375
v -0.03125 -0.1875 -0.09375
v -0.03125 -0.125 -0.09375
v -0.09375 -0.125 -0.15625
v -0.09375 -0.1875 -0.15625
v -0.09375 -0.1875 -0.09375
v -0.09375 -0.125 -0.09375
v -0.03125 -0.125 -0.15625
v -0.03125 -0.125 -0.09375
v -0.03125 -0.1875 -0.09375
v -0.03125 -0.1875 -0.15625
v -0.09375 -0.125 -0.15625
v -0.09375 -0.125 -0.09375
v -0.03125 -0.125 -0.09375
v -0.03125 -0.125 -0.15625
v -0.09375 -0.1875 -0.15625
v -0.03125 -0.1875 -0.15625
v -0.03125 -0.1875 -0.09375
v -0.09375 -0.1875 -0.09375
v 0.0625 -0.21875 -0.125
v 0.1875 -0.21875 -0.125
v 0.1875 -0.21875 0.125
v 0.0625 -0.21875 0.125
v 0.0625 -0.15625 -0.125
v 0.0625 -0.15625 0.125
v 0.1875 -0.15625 0.125
v 0.1875 -0.15625 -0.125
v 0.0625 -0.21875 -0.125
v 0.0625 -0.21875 0.125
v 0.0625 -0.15625 0.125
v 0.0625 -0.15625 -0.125
v 0.1875 -0.21875 -0.125
v 0.1875 -0.15625 -0.125
v 0.1875 -0.15625 0.125
v 0.1875 -0.21875 0.125
v 0.0625 -0.21875 -0.125
v 0.0625 -0.15625 -0.125
v 0.1875 -0.15625 -0.125
v 0.1875 -0.21875 -0.125
v 0.0625 -0.21875 0.125
v 0.1875 -0.21875 0.125
v 0.1875 -0.15625 0.125
v 0.0625 -0.15625 0.125
v 0.09375 -0.09375 -0.09375
v 0.15625 -0.09375 -0.09375
v 0.15625 -0.1875 -0.09375
v 0.09375 -0.1875 -0.09375
v 0.09375 -0.09375 -0.03125
v 0.09375 -0.1875 -0.03125
v 0.15625 -0.1875 -0.03125
v 0.15625 -0.09375 -0.03125
v 0.09375 -0.09375 -0.09375
v 0.09375 -0.1875 -0.09375
v 0.09375 -0.1875 -0.03125
v 0.09375 -0.09375 -0.03125
v 0.15625 -0.09375 -0.09375
v 0.15625 -0.09375 -0.03125
v 0.15625 -0.1875 -0.03125
v 0.15625 -0.1875 -0.09375
v 0.09375 -0.09375 -0.09375
v 0.09375 -0.09375 -0.03125
v 0.15625 -0.09375 -0.03125
v 0.15625 -0.09375 -0.09375
v 0.09375 -0.1875 -0.09375
v 0.15625 -0.1875 -0.09375
v 0.15625 -0.1875 -0.03125
v 0.09375 -0.1875 -0.03125
v 0.09375 -0.09375 0.03125
v 0.15625 -0.09375 0.03125
v 0.15625 -0.1875 0.03125
v 0.09375 -0.1875 0.03125
v 0.09375 -0.09375 0.09375
v 0.09375 -0.1875 0.09375
v 0.15625 -0.1875 0.09375
v 0.15625 -0.09375 0.09375
v 0.09375 -0.09375 0.03125
v 0.09375 -0.1875 0.03125
v 0.09375 -0.1875 0.09375
v 0.09375 -0.09375 0.09375
v 0.15625 -0.09375 0.03125
v 0.15625 -0.09375 0.09375
v 0.15625 -0.1875 0.09375
v 0.15625 -0.1875 0.03125
v 0.09375 -0.09375 0.03125
v 0.09375 -0.09375 0.09375
v 0.15625 -0.09375 0.09375
v 0.15625 -0.09375 0.03125
v 0.09375 -0.1875 0.03125
v 0.15625 -0.1875 0.03125
v 0.15625 -0.1875 0.09375
v 0.09375 -0.1875 0.09375
v -0.1875 -0.21875 -0.125
v -0.0625 -0.21875 -0.125
v -0.0625 -0.21875 0.125
v -0.1875 -0.21875 0.125
v -0.1875 -0.15625 -0.125
v -0.1875 -0.15625 0.125
v -0.0625 -0.15625 0.125
v -0.0625 -0.15625 -0.125
v -0.1875 -0.21875 -0.125
v -0.1875 -0.21875 0.125
v -0.1875 -0.15625 0.125
v -0.1875 -0.15625 -0.125
v -0.0625 -0.21875 -0.125
v -0.0625 -0.15625 -0.125
v -0.0625 -0.15625 0.125
v -0.0625 -0.21875 0.125
v -0.1875 -0.21875 -0.125
v -0.1875 -0.15625 -0.125
v -0.0625 -0.15625 -0.125
v -0.0625 -0.21875 -0.125
v -0.1875 -0.21875 0.125
v -0.0625 -0.21875 0.125
v -0.0625 -0.15625 0.125
v -0.1875 -0.15625 0.125
v -0.15625 -0.09375 -0.09375
v -0.09375 -0.09375 -0.09375
v -0.09375 -0.1875 -0.09375
v -0.15625 -0.1875 -0.09375
v -0.15625 -0.09375 -0.03125
v -0.15625 -0.1875 -0.03125
v -0.09375 -0.1875 -0.03125
v -0.09375 -0.09375 -0.03125
v -0.15625 -0.09375 -0.09375
v -0.15625 -0.1875 -0.09375
v -0.15625 -0.1875 -0.03125
v -0.15625 -0.09375 -0.03125
v -0.09375 -0.09375 -0.09375
v -0.09375 -0.09375 -0.03125
v -0.09375 -0.1875 -0.03125
v -0.09375 -0.1875 -0.09375
v -0.15625 -0.09375 -0.09375
v -0.15625 -0.09375 -0.03125
v -0.09375 -0.09375 -0.03125
v -0.09375 -0.09375 -0.09375
v -0.15625 -0.1875 -0.09375
v -0.09375 -0.1875 -0.09375
v -0.09375 -0.1875 -0.03125
v -0.15625 -0.1875 -0.03125
v -0.15625 -0.09375 0.03125
v -0.09375 -0.09375 0.03125
v -0.09375 -0.1875 0.03125
v -0.15625 -0.1875 0.03125
v -0.15625 -0.09375 0.09375
v -0.15625 -0.1875 0.09375
v -0.09375 -0.1875 0.09375
v -0.09375 -0.09375 0.09375
v -0.15625 -0.09375 0.03125
v -0.15625 -0.1875 0.03125
v -0.15625 -0.1875 0.09375
v -0.15625 -0.09375 0.09375
v -0.09375 -0.09375 0.03125
v -0.09375 -0.09375 0.09375
v -0.09375 -0.1875 0.09375
v -0.09375 -0.1875 0.03125
v -0.15625 -0.09375 0.03125
v -0.15625 -0.09375 0.09375
v -0.09375 -0.09375 0.09375
v -0.09375 -0.09375 0.03125
v -0.15625 -0.1875 0.03125
v -0.09375 -0.1875 0.03125
v -0.09375 -0.1875 0.09375
v -0.15625 -0.1875 0.09375
v 0.0859375 0 -0.0390625
v 0.0390625 0 -0.0859375
v 0.2265625 0 -0.2734375
v 0.2734375 0 -0.2265625
v 0.0859375 0.0625 -0.0390625
v 0.2734375 0.0625 -0.2265625
v 0.2265625 0.0625 -0.2734375
v 0.0390625 0.0625 -0.0859375
v 0.0859375 0 -0.0390625
v 0.2734375 0 -0.2265625
v 0.2734375 0.0625 -0.2265625
v 0.0859375 0.0625 -0.0390625
v 0.0390625 0 -0.0859375
v 0.0390625 0.0625 -0.0859375
v 0.2265625 0.0625 -0.2734375
v 0.2265625 0 -0.2734375
v 0.0859375 0 -0.0390625
v 0.0859375 0.0625 -0.0390625
v 0.0390625 0.0625 -0.0859375
v 0.0390625 0 -0.0859375
v 0.2734375 0 -0.2265625
v 0.2265625 0 -0.2734375
v 0.2265625 0.0625 -0.2734375
v 0.2734375 0.0625 -0.2265625
v 0.3203125 0.125 -0.21875
v 0.28125 0.125 -0.1796875
v 0.28125 0.0625 -0.1796875
v 0.3203125 0.0625 -0.21875
v 0.28125 0.125 -0.1796875
v 0.21875 0.125 -0.1796875
v 0.21875 0.0625 -0.1796875
v 0.28125 0.0625 -0.1796875
v 0.21875 0.125 -0.1796875
v 0.1796875 0.125 -0.21875
v 0.1796875 0.0625 -0.21875
v 0.21875 0.0625 -0.1796875
v 0.1796875 0.125 -0.21875
v 0.1796875 0.125 -0.28125
v 0.1796875 0.0625 -0.28125
v 0.1796875 0.0625 -0.21875
v 0.1796875 0.125 -0.28125
v 0.21875 0.125 -0.3203125
v 0.21875 0.0625 -0.3203125
v 0.1796875 0.0625 -0.28125
v 0.21875 0.125 -0.3203125
v 0.28125 0.125 -0.3203125
v 0.28125 0.0625 -0.3203125
v 0.21875 0.0625 -0.3203125
v 0.28125 0.125 -0.3203125
v 0.3203125 0.125 -0.28125
v 0.3203125 0.0625 -0.28125
v 0.28125 0.0625 -0.3203125
v 0.3203125 0.125 -0.28125
v 0.3203125 0.125 -0.21875
v 0.3203125 0.0625 -0.21875
v 0.3203125 0.0625 -0.28125
v 0.28125 0.0625 -0.1796875
v 0.21875 0.0625 -0.1796875
v 0.3203125 0.0625 -0.21875
v 0.21875 0.125 -0.1796875
v 0.28125 0.125 -0.1796875
v 0.3203125 0.125 -0.21875
v 0.21875 0.0625 -0.1796875
v 0.1796875 0.0625 -0.21875
v 0.3203125 0.0625 -0.21875
v 0.1796875 0.125 -0.21875
v 0.21875 0.125 -0.1796875
v 0.3203125 0.125 -0.21875
v 0.1796875 0.0625 -0.21875
v 0.1796875 0.0625 -0.28125
v 0.3203125 0.0625 -0.21875
v 0.1796875 0.125 -0.28125
v 0.1796875 0.125 -0.21875
v 0.3203125 0.125 -0.21875
v 0.1796875 0.0625 -0.28125
v 0.21875 0.0625 -0.3203125
v 0.3203125 0.0625 -0.21875
v 0.21875 0.125 -0.3203125
v 0.1796875 0.125 -0.28125
v 0.3203125 0.125 -0.21875
v 0.21875 0.0625 -0.3203125
v 0.28125 0.0625 -0.3203125
v 0.3203125 0.0625 -0.21875
v 0.28125 0.125 -0.3203125
v 0.21875 0.125 -0.3203125
v 0.3203125 0.125 -0.21875
v 0.28125 0.0625 -0.3203125
v 0.3203125 0.0625 -0.28125
v 0.3203125 0.0625 -0.21875
v 0.3203125 0.125 -0.28125
v 0.28125 0.125 -0.3203125
v 0.3203125 0.125 -0.21875
v 0.28125 0.125 -0.125
v 0.21875 0.125 -0.125
v 0.21875 0.125 -0.375
v 0.28125 0.125 -0.375
v 0.28125 0.140625 -0.125
v 0.28125 0.140625 -0.375
v 0.21875 0.140625 -0.375
v 0.21875 0.140625 -0.125
v 0.28125 0.125 -0.125
v 0.28125 0.125 -0.375
v 0.28125 0.140625 -0.375
v 0.28125 0.140625 -0.125
v 0.21875 0.125 -0.125
v 0.21875 0.140625 -0.125
v 0.21875 0.140625 -0.375
v 0.21875 0.125 -0.375
v 0.28125 0.125 -0.125
v 0.28125 0.140625 -0.125
v 0.21875 0.140625 -0.125
v 0.21875 0.125 -0.125
v 0.28125 0.125 -0.375
v 0.21875 0.125 -0.375
v 0.21875 0.140625 -0.375
v 0.28125 0.140625 -0.375
v 0.375 0.140625 -0.28125
v 0.375 0.140625 -0.21875
v 0.125 0.140625 -0.21875
v 0.125 0.140625 -0.28125
v 0.375 0.15625 -0.28125
v 0.125 0.15625 -0.28125
v 0.125 0.15625 -0.21875
v 0.375 0.15625 -0.21875
v 0.375 0.140625 -0.28125
v 0.125 0.140625 -0.28125
v 0.125 0.15625 -0.28125
v 0.375 0.15625 -0.28125
v 0.375 0.140625 -0.21875
v 0.375 0.15625 -0.21875
v 0.125 0.15625 -0.21875
v 0.125 0.140625 -0.21875
v 0.375 0.140625 -0.28125
v 0.375 0.15625 -0.28125
v 0.375 0.15625 -0.21875
v 0.375 0.140625 -0.21875
v 0.125 0.140625 -0.28125
v 0.125 0.140625 -0.21875
v 0.125 0.15625 -0.21875
v 0.125 0.15625 -0.28125
v 0.0390625 0 0.0859375
v 0.0859375 0 0.0390625
v 0.2734375 0 0.2265625
v 0.2265625 0 0.2734375
v 0.0390625 0.0625 0.0859375
v 0.2265625 0.0625 0.2734375
v 0.2734375 0.0625 0.2265625
v 0.0859375 0.0625 0.0390625
v 0.0390625 0 0.0859375
v 0.2265625 0 0.2734375
v 0.2265625 0.0625 0.2734375
v 0.0390625 0.0625 0.0859375
v 0.0859375 0 0.0390625
v 0.0859375 0.0625 0.0390625
v 0.2734375 0.0625 0.2265625
v 0.2734375 0 0.2265625
v 0.0390625 0 0.0859375
v 0.0390625 0.0625 0.0859375
v 0.0859375 0.0625 0.0390625
v 0.0859375 0 0.0390625
v 0.2265625 0 0.2734375
v 0.2734375 0 0.2265625
v 0.2734375 0.0625 0.2265625
v 0.2265625 0.0625 0.2734375
v 0.21875 0.125 0.3203125
v 0.1796875 0.125 0.28125
v 0.1796875 0.0625 0.28125
v 0.21875 0.0625 0.3203125
v 0.1796875 0.125 0.28125
v 0.1796875 0.125 0.21875
v 0.1796875 0.0625 0.21875
v 0.1796875 0.0625 0.28125
v 0.1796875 0.125 0.21875
v 0.21875 0.125 0.1796875
v 0.21875 0.0625 0.1796875
v 0.1796875 0.0625 0.21875
v 0.21875 0.125 0.1796875
v 0.28125 0.125 0.1796875
v 0.28125 0.0625 0.1796875
v 0.21875 0.0625 0.1796875
v 0.28125 0.125 0.1796875
v 0.3203125 0.125 0.21875
v 0.3203125 0.0625 0.21875
v 0.28125 0.0625 0.1796875
v 0.3203125 0.125 0.21875
v 0.3203125 0.125 0.28125
v 0.3203125 0.0625 0.28125
v 0.3203125 0.0625 0.21875
v 0.3203125 0.125 0.28125
v 0.28125 0.125 0.3203125
v 0.28125 0.0625 0.3203125
v 0.3203125 0.0625 0.28125
v 0.28125 0.125 0.3203125
v 0.21875 0.125 0.3203125
v 0.21875 0.0625 0.3203125
v 0.28125 0.0625 0.3203125
v 0.1796875 0.0625 0.28125
v 0.1796875 0.0625 0.21875
v 0.21875 0.0625 0.3203125
v 0.1796875 0.125 0.21875
v 0.1796875 0.125 0.28125
v 0.21875 0.125 0.3203125
v 0.1796875 0.0625 0.21875
v 0.21875 0.0625 0.1796875
v 0.21875 0.0625 0.3203125
v 0.21875 0.125 0.1796875
v 0.1796875 0.125 0.21875
v 0.21875 0.125 0.3203125
v 0.21875 0.0625 0.1796875
v 0.28125 0.0625 0.1796875
v 0.21875 0.0625 0.3203125
v 0.28125 0.125 0.1796875
v 0.21875 0.125 0.1796875
v 0.21875 0.125 0.3203125
v 0.28125 0.0625 0.1796875
v 0.3203125 0.0625 0.21875
v 0.21875 0.0625 0.3203125
v 0.3203125 0.125 0.21875
v 0.28125 0.125 0.1796875
v 0.21875 0.125 0.3203125
v 0.3203125 0.0625 0.21875
v 0.3203125 0.0625 0.28125
v 0.21875 0.0625 0.3203125
v 0.3203125 0.125 0.28125
v 0.3203125 0.125 0.21875
v 0.21875 0.125 0.3203125
v 0.3203125 0.0625 0.28125
v 0.28125 0.0625 0.3203125
v 0.21875 0.0625 0.3203125
v 0.28125 0.125 0.3203125
v 0.3203125 0.125 0.28125
v 0.21875 0.125 0.3203125
v 0.125 0.125 0.28125
v 0.125 0.125 0.21875
v 0.375 0.125 0.21875
v 0.375 0.125 0.28125
v 0.125 0.140625 0.28125
v 0.375 0.140625 0.28125
v 0.375 0.140625 0.21875
v 0.125 0.140625 0.21875
v 0.125 0.125 0.28125
v 0.375 0.125 0.28125
v 0.375 0.140625 0.28125
v 0.125 0.140625 0.28125
v 0.125 0.125 0.21875
v 0.125 0.140625 0.21875
v 0.375 0.140625 0.21875
v 0.375 0.125 0.21875
v 0.125 0.125 0.28125
v 0.125 0.140625 0.28125
v 0.125 0.140625 0.21875
v 0.125 0.125 0.21875
v 0.375 0.125 0.28125
v 0.375 0.125 0.21875
v 0.375 0.140625 0.21875
v 0.375 0.140625 0.28125
v 0.28125 0.140625 0.375
v 0.21875 0.140625 0.375
v 0.21875 0.140625 0.125
v 0.28125 0.140625 0.125
v 0.28125 0.15625 0.375
v 0.28125 0.15625 0.125
v 0.21875 0.15625 0.125
v 0.21875 0.15625 0.375
v 0.28125 0.140625 0.375
v 0.28125 0.140625 0.125
v 0.28125 0.15625 0.125
v 0.28125 0.15625 0.375
v 0.21875 0.140625 0.375
v 0.21875 0.15625 0.375
v 0.21875 0.15625 0.125
v 0.21875 0.140625 0.125
v 0.28125 0.140625 0.375
v 0.28125 0.15625 0.375
v 0.21875 0.15625 0.375
v 0.21875 0.140625 0.375
v 0.28125 0.140625 0.125
v 0.21875 0.140625 0.125
v 0.21875 0.15625 0.125
v 0.28125 0.15625 0.125
v -0.0859375 0 0.0390625
v -0.0390625 0 0.0859375
v -0.2265625 0 0.2734375
v -0.2734375 0 0.2265625
v -0.0859375 0.0625 0.0390625
v -0.2734375 0.0625 0.2265625
v -0.2265625 0.0625 0.2734375
v -0.0390625 0.0625 0.0859375
v -0.0859375 0 0.0390625
v -0.2734375 0 0.2265625
v -0.2734375 0.0625 0.2265625
v -0.0859375 0.0625 0.0390625
v -0.0390625 0 0.0859375
v -0.0390625 0.0625 0.0859375
v -0.2265625 0.0625 0.2734375
v -0.2265625 0 0.2734375
v -0.0859375 0 0.0390625
v -0.0859375 0.0625 0.0390625
v -0.0390625 0.0625 0.0859375
v -0.0390625 0 0.0859375
v -0.2734375 0 0.2265625
v -0.2265625 0 0.2734375
v -0.2265625 0.0625 0.2734375
v -0.2734375 0.0625 0.2265625
v -0.3203125 0.125 0.21875
v -0.28125 0.125 0.1796875
v -0.28125 0.0625 0.1796875
v -0.3203125 0.0625 0.21875
v -0.28125 0.125 0.1796875
v -0.21875 0.125 0.1796875
v -0.21875 0.0625 0.1796875
v -0.28125 0.0625 0.1796875
v -0.21875 0.125 0.1796875
v -0.1796875 0.125 0.21875
v -0.1796875 0.0625 0.21875
v -0.21875 0.0625 0.1796875
v -0.1796875 0.125 0.21875
v -0.1796875 0.125 0.28125
v -0.1796875 0.0625 0.28125
v -0.1796875 0.0625 0.21875
v -0.1796875 0.125 0.28125
v -0.21875 0.125 0.3203125
v -0.21875 0.0625 0.3203125
v -0.1796875 0.0625 0.28125
v -0.21875 0.125 0.3203125
v -0.28125 0.125 0.3203125
v -0.28125 0.0625 0.3203125
v -0.21875 0.0625 0.3203125
v -0.28125 0.125 0.3203125
v -0.3203125 0.125 0.28125
v -0.3203125 0.0625 0.28125
v -0.28125 0.0625 0.3203125
v -0.3203125 0.125 0.28125
v -0.3203125 0.125 0.21875
v -0.3203125 0.0625 0.21875
v -0.3203125 0.0625 0.28125
v -0.28125 0.0625 0.1796875
v -0.21875 0.0625 0.1796875
v -0.3203125 0.0625 0.21875
v -0.21875 0.125 0.1796875
v -0.28125 0.125 0.1796875
v -0.3203125 0.125 0.21875
v -0.21875 0.0625 0.1796875
v -0.1796875 0.0625 0.21875
v -0.3203125 0.0625 0.21875
v -0.1796875 0.125 0.21875
v -0.21875 0.125 0.1796875
v -0.3203125 0.125 0.21875
v -0.1796875 0.0625 0.21875
v -0.1796875 0.0625 0.28125
v -0.3203125 0.0625 0.21875
v -0.1796875 0.125 0.28125
v -0.1796875 0.125 0.21875
v -0.3203125 0.125 0.21875
v -0.1796875 0.0625 0.28125
v -0.21875 0.0625 0.3203125
v -0.3203125 0.0625 0.21875
v -0.21875 0.125 0.3203125
v -0.1796875 0.125 0.28125
v -0.3203125 0.125 0.21875
v -0.21875 0.0625 0.3203125
v -0.28125 0.0625 0.3203125
v -0.3203125 0.0625 0.21875
v -0.28125 0.125 0.3203125
v -0.21875 0.125 0.3203125
v -0.3203125 0.125 0.21875
v -0.28125 0.0625 0.3203125
v -0.3203125 0.0625 0.28125
v -0.3203125 0.0625 0.21875
v -0.3203125 0.125 0.28125
v -0.28125 0.125 0.3203125
v -0.3203125 0.125 0.21875
v -0.28125 0.125 0.125
v -0.21875 0.125 0.125
v -0.21875 0.125 0.375
v -0.28125 0.125 0.375
v -0.28125 0.140625 0.125
v -0.28125 0.140625 0.375
v -0.21875 0.140625 0.375
v -0.21875 0.140625 0.125
v -0.28125 0.125 0.125
v -0.28125 0.125 0.375
v -0.28125 0.140625 0.375
v -0.28125 0.140625 0.125
v -0.21875 0.125 0.125
v -0.21875 0.140625 0.125
v -0.21875 0.140625 0.375
v -0.21875 0.125 0.375
v -0.28125 0.125 0.125
v -0.28125 0.140625 0.125
v -0.21875 0.140625 0.125
v -0.21875 0.125 0.125
v -0.28125 0.125 0.375
v -0.21875 0.125 0.375
v -0.21875 0.140625 0.375
v -0.28125 0.140625 0.375
v -0.375 0.140625 0.28125
v -0.375 0.140625 0.21875
v -0.125 0.140625 0.21875
v -0.125 0.140625 0.28125
v -0.375 0.15625 0.28125
v -0.125 0.15625 0.28125
v -0.125 0.15625 0.21875
v -0.375 0.15625 0.21875
v -0.375 0.140625 0.28125
v -0.125 0.140625 0.28125
v -0.125 0.15625 0.28125
v -0.375 0.15625 0.28125
v -0.375 0.140625 0.21875
v -0.375 0.15625 0.21875
v -0.125 0.15625 0.21875
v -0.125 0.140625 0.21875
v -0.375 0.140625 0.28125
v -0.375 0.15625 0.28125
v -0.375 0.15625 0.21875
v -0.375 0.140625 0.21875
v -0.125 0.140625 0.28125
v -0.125 0.140625 0.21875
v -0.125 0.15625 0.21875
v -0.125 0.15625 0.28125
v -0.0390625 0 -0.0859375
v -0.0859375 0 -0.0390625
v -0.2734375 0 -0.2265625
v -0.2265625 0 -0.2734375
v -0.0390625 0.0625 -0.0859375
v -0.2265625 0.0625 -0.2734375
v -0.2734375 0.0625 -0.2265625
v -0.0859375 0.0625 -0.0390625
v -0.0390625 0 -0.0859375
v -0.2265625 0 -0.2734375
v -0.2265625 0.0625 -0.2734375
v -0.0390625 0.0625 -0.0859375
v -0.0859375 0 -0.0390625
v -0.0859375 0.0625 -0.0390625
v -0.2734375 0.0625 -0.2265625
v -0.2734375 0 -0.2265625
v -0.0390625 0 -0.0859375
v -0.0390625 0.0625 -0.0859375
v -0.0859375 0.0625 -0.0390625
v -0.0859375 0 -0.0390625
v -0.2265625 0 -0.2734375
v -0.2734375 0 -0.2265625
v -0.2734375 0.0625 -0.2265625
v -0.2265625 0.0625 -0.2734375
v -0.21875 0.125 -0.3203125
v -0.1796875 0.125 -0.28125
v -0.1796875 0.0625 -0.28125
v -0.21875 0.0625 -0.3203125
v -0.1796875 0.125 -0.28125
v -0.1796875 0.125 -0.21875
v -0.1796875 0.0625 -0.21875
v -0.1796875 0.0625 -0.28125
v -0.1796875 0.125 -0.21875
v -0.21875 0.125 -0.1796875
v -0.21875 0.0625 -0.1796875
v -0.1796875 0.0625 -0.21875
v -0.21875 0.125 -0.1796875
v -0.28125 0.125 -0.1796875
v -0.28125 0.0625 -0.1796875
v -0.21875 0.0625 -0.1796875
v -0.28125 0.125 -0.1796875
v -0.3203125 0.125 -0.21875
v -0.3203125 0.0625 -0.21875
v -0.28125 0.0625 -0.1796875
v -0.3203125 0.125 -0.21875
v -0.3203125 0.125 -0.28125
v -0.3203125 0.0625 -0.28125
v -0.3203125 0.0625 -0.21875
v -0.3203125 0.125 -0.28125
v -0.28125 0.125 -0.3203125
v -0.28125 0.0625 -0.3203125
v -0.3203125 0.0625 -0.28125
v -0.28125 0.125 -0.3203125
v -0.21875 0.125 -0.3203125
v -0.21875 0.0625 -0.3203125
v -0.28125 0.0625 -0.3203125
v -0.1796875 0.0625 -0.28125
v -0.1796875 0.0625 -0.21875
v -0.21875 0.0625 -0.3203125
v -0.1796875 0.125 -0.21875
v -0.1796875 0.125 -0.28125
v -0.21875 0.125 -0.3203125
v -0.1796875 0.0625 -0.21875
v -0.21875 0.0625 -0.1796875
v -0.21875 0.0625 -0.3203125
v -0.21875 0.125 -0.1796875
v -0.1796875 0.125 -0.21875
v -0.21875 0.125 -0.3203125
v -0.21875 0.0625 -0.1796875
v -0.28125 0.0625 -0.1796875
v -0.21875 0.0625 -0.3203125
v -0.28125 0.125 -0.1796875
v -0.21875 0.125 -0.1796875
v -0.21875 0.125 -0.3203125
v -0.28125 0.0625 -0.1796875
v -0.3203125 0.0625 -0.21875
v -0.21875 0.0625 -0.3203125
v -0.3203125 0.125 -0.21875
v -0.28125 0.125 -0.1796875
v -0.21875 0.125 -0.3203125
v -0.3203125 0.0625 -0.21875
v -0.3203125 0.0625 -0.28125
v -0.21875 0.0625 -0.3203125
v -0.3203125 0.125 -0.28125
v -0.3203125 0.125 -0.21875
v -0.21875 0.125 -0.3203125
v -0.3203125 0.0625 -0.28125
v -0.28125 0.0625 -0.3203125
v -0.21875 0.0625 -0.3203125
v -0.28125 0.125 -0.3203125
v -0.3203125 0.125 -0.28125
v -0.21875 0.125 -0.3203125
v -0.125 0.125 -0.28125
v -0.125 0.125 -0.21875
v -0.375 0.125 -0.21875
v -0.375 0.125 -0.28125
v -0.125 0.140625 -0.28125
v -0.375 0.140625 -0.28125
v -0.375 0.140625 -0.21875
v -0.125 0.140625 -0.21875
v -0.125 0.125 -0.28125
v -0.375 0.125 -0.28125
v -0.375 0.140625 -0.28125
v -0.125 0.140625 -0.28125
v -0.125 0.125 -0.21875
v -0.125 0.140625 -0.21875
v -0.375 0.140625 -0.21875
v -0.375 0.125 -0.21875
v -0.125 0.125 -0.28125
v -0.125 0.140625 -0.28125
v -0.125 0.140625 -0.21875
v -0.125 0.125 -0.21875
v -0.375 0.125 -0.28125
v -0.375 0.125 -0.21875
v -0.375 0.140625 -0.21875
v -0.375 0.140625 -0.28125
v -0.28125 0.140625 -0.375
v -0.21875 0.140625 -0.375
v -0.21875 0.140625 -0.125
v -0.28125 0.140625 -0.125
v -0.28125 0.15625 -0.375
v -0.28125 0.15625 -0.125
v -0.21875 0.15625 -0.125
v -0.21875 0.15625 -0.375
v -0.28125 0.140625 -0.375
v -0.28125 0.140625 -0.125
v -0.28125 0.15625 -0.125
v -0.28125 0.15625 -0.375
v -0.21875 0.140625 -0.375
v -0.21875 0.15625 -0.375
v -0.21875 0.15625 -0.125
v -0.21875 0.140625 -0.125
v -0.28125 0.140625 -0.375
v -0.28125 0.15625 -0.375
v -0.21875 0.15625 -0.375
v -0.21875 0.140625 -0.375
v -0.28125 0.140625 -0.125
v -0.21875 0.140625 -0.125
v -0.21875 0.15625 -0.125
v -0.28125 0.15625 -0.125
vt 0.00390625 0.00390625
vt 0.05859375 0.00390625
vt 0.05859375 0.01953125
vt 0.00390625 0.01953125
vt 0.060546875 0.00390625
vt 0.126953125 0.00390625
vt 0.126953125 0.01953125
vt 0.060546875 0.01953125
vt 0.12890625 0.00390625
vt 0.20703125 0.00390625
vt 0.20703125 0.0703125
vt 0.12890625 0.0703125
vt 0.208984375 0.00390625
vt 0.287109375 0.00390625
vt 0.287109375 0.0703125
vt 0.208984375 0.0703125
vt 0.2890625 0.00390625
vt 0.3671875 0.00390625
vt 0.3671875 0.01953125
vt 0.2890625 0.01953125
vt 0.369140625 0.00390625
vt 0.447265625 0.00390625
vt 0.447265625 0.01953125
vt 0.369140625 0.01953125
vt 0.44921875 0.00390625
vt 0.50390625 0.00390625
vt 0.50390625 0.01953125
vt 0.44921875 0.01953125
vt 0.505859375 0.00390625
vt 0.580078125 0.00390625
vt 0.580078125 0.01953125
vt 0.505859375 0.01953125
vt 0.58203125 0.00390625
vt 0.66796875 0.00390625
vt 0.66796875 0.078125
vt 0.58203125 0.078125
vt 0.669921875 0.00390625
vt 0.755859375 0.00390625
vt 0.755859375 0.078125
vt 0.669921875 0.078125
vt 0.7578125 0.00390625
vt 0.84375 0.00390625
vt 0.84375 0.01953125
vt 0.7578125 0.01953125
vt 0.845703125 0.00390625
vt 0.931640625 0.00390625
vt 0.931640625 0.01953125
vt 0.845703125 0.01953125
vt 0.93359375 0.00390625
vt 0.98046875 0.00390625
vt 0.98046875 0.01953125
vt 0.93359375 0.01953125
vt 0.00390625 0.080078125
vt 0.0625 0.080078125
vt 0.0625 0.095703125
vt 0.00390625 0.095703125
vt 0.064453125 0.080078125
vt 0.134765625 0.080078125
vt 0.134765625 0.138671875
vt 0.064453125 0.138671875
vt 0.13671875 0.080078125
vt 0.20703125 0.080078125
vt 0.20703125 0.138671875
vt 0.13671875 0.138671875
vt 0.208984375 0.080078125
vt 0.279296875 0.080078125
vt 0.279296875 0.095703125
vt 0.208984375 0.095703125
vt 0.28125 0.080078125
vt 0.3515625 0.080078125
vt 0.3515625 0.095703125
vt 0.28125 0.095703125
vt 0.353515625 0.080078125
vt 0.369140625 0.080078125
vt 0.369140625 0.095703125
vt 0.353515625 0.095703125
vt 0.37109375 0.080078125
vt 0.40234375 0.080078125
vt 0.40234375 0.095703125
vt 0.37109375 0.095703125
vt 0.404296875 0.080078125
vt 0.435546875 0.080078125
vt 0.435546875 0.111328125
vt 0.404296875 0.111328125
vt 0.4375 0.080078125
vt 0.46875 0.080078125
vt 0.46875 0.111328125
vt 0.4375 0.111328125
vt 0.470703125 0.080078125
vt 0.501953125 0.080078125
vt 0.501953125 0.095703125
vt 0.470703125 0.095703125
vt 0.50390625 0.080078125
vt 0.53515625 0.080078125
vt 0.53515625 0.095703125
vt 0.50390625 0.095703125
vt 0.537109375 0.080078125
vt 0.552734375 0.080078125
vt 0.552734375 0.095703125
vt 0.537109375 0.095703125
vt 0.5546875 0.080078125
vt 0.5859375 0.080078125
vt 0.5859375 0.095703125
vt 0.5546875 0.095703125
vt 0.587890625 0.080078125
vt 0.619140625 0.080078125
vt 0.619140625 0.103515625
vt 0.587890625 0.103515625
vt 0.62109375 0.080078125
vt 0.65234375 0.080078125
vt 0.65234375 0.103515625
vt 0.62109375 0.103515625
vt 0.654296875 0.080078125
vt 0.677734375 0.080078125
vt 0.677734375 0.095703125
vt 0.654296875 0.095703125
vt 0.6796875 0.080078125
vt 0.703125 0.080078125
vt 0.703125 0.095703125
vt 0.6796875 0.095703125
vt 0.705078125 0.080078125
vt 0.720703125 0.080078125
vt 0.720703125 0.095703125
vt 0.705078125 0.095703125
vt 0.72265625 0.080078125
vt 0.73828125 0.080078125
vt 0.73828125 0.095703125
vt 0.72265625 0.095703125
vt 0.740234375 0.080078125
vt 0.755859375 0.080078125
vt 0.755859375 0.095703125
vt 0.740234375 0.095703125
vt 0.7578125 0.080078125
vt 0.7734375 0.080078125
vt 0.7734375 0.095703125
vt 0.7578125 0.095703125
vt 0.775390625 0.080078125
vt 0.791015625 0.080078125
vt 0.791015625 0.095703125
vt 0.775390625 0.095703125
vt 0.79296875 0.080078125
vt 0.80859375 0.080078125
vt 0.80859375 0.095703125
vt 0.79296875 0.095703125
vt 0.810546875 0.080078125
vt 0.841796875 0.080078125
vt 0.841796875 0.111328125
vt 0.810546875 0.111328125
vt 0.84375 0.080078125
vt 0.875 0.080078125
vt 0.875 0.111328125
vt 0.84375 0.111328125
vt 0.876953125 0.080078125
vt 0.908203125 0.080078125
vt 0.908203125 0.095703125
vt 0.876953125 0.095703125
vt 0.91015625 0.080078125
vt 0.94140625 0.080078125
vt 0.94140625 0.095703125
vt 0.91015625 0.095703125
vt 0.943359375 0.080078125
vt 0.974609375 0.080078125
vt 0.974609375 0.095703125
vt 0.943359375 0.095703125
vt 0.00390625 0.140625
vt 0.03515625 0.140625
vt 0.03515625 0.15625
vt 0.00390625 0.15625
vt 0.037109375 0.140625
vt 0.068359375 0.140625
vt 0.068359375 0.15625
vt 0.037109375 0.15625
vt 0.0703125 0.140625
vt 0.1015625 0.140625
vt 0.1015625 0.15625
vt 0.0703125 0.15625
vt 0.103515625 0.140625
vt 0.134765625 0.140625
vt 0.134765625 0.1484375
vt 0.103515625 0.1484375
vt 0.13671875 0.140625
vt 0.16796875 0.140625
vt 0.16796875 0.1484375
vt 0.13671875 0.1484375
vt 0.169921875 0.140625
vt 0.185546875 0.140625
vt 0.185546875 0.1484375
vt 0.169921875 0.1484375
vt 0.1875 0.140625
vt 0.203125 0.140625
vt 0.203125 0.1484375
vt 0.1875 0.1484375
vt 0.205078125 0.140625
vt 0.220703125 0.140625
vt 0.220703125 0.15625
vt 0.205078125 0.15625
vt 0.22265625 0.140625
vt 0.23828125 0.140625
vt 0.23828125 0.15625
vt 0.22265625 0.15625
vt 0.240234375 0.140625
vt 0.255859375 0.140625
vt 0.255859375 0.15625
vt 0.240234375 0.15625
vt 0.2578125 0.140625
vt 0.2734375 0.140625
vt 0.2734375 0.15625
vt 0.2578125 0.15625
vt 0.275390625 0.140625
vt 0.291015625 0.140625
vt 0.291015625 0.15625
vt 0.275390625 0.15625
vt 0.29296875 0.140625
vt 0.30859375 0.140625
vt 0.30859375 0.15625
vt 0.29296875 0.15625
vt 0.310546875 0.140625
vt 0.326171875 0.140625
vt 0.326171875 0.15625
vt 0.310546875 0.15625
vt 0.328125 0.140625
vt 0.34375 0.140625
vt 0.34375 0.15625
vt 0.328125 0.15625
vt 0.345703125 0.140625
vt 0.361328125 0.140625
vt 0.361328125 0.15625
vt 0.345703125 0.15625
vt 0.36328125 0.140625
vt 0.37890625 0.140625
vt 0.37890625 0.15625
vt 0.36328125 0.15625
vt 0.380859375 0.140625
vt 0.396484375 0.140625
vt 0.396484375 0.15625
vt 0.380859375 0.15625
vt 0.3984375 0.140625
vt 0.4140625 0.140625
vt 0.4140625 0.15625
vt 0.3984375 0.15625
vt 0.416015625 0.140625
vt 0.478515625 0.140625
vt 0.478515625 0.171875
vt 0.416015625 0.171875
vt 0.48046875 0.140625
vt 0.54296875 0.140625
vt 0.54296875 0.171875
vt 0.48046875 0.171875
vt 0.544921875 0.140625
vt 0.607421875 0.140625
vt 0.607421875 0.15625
vt 0.544921875 0.15625
vt 0.609375 0.140625
vt 0.671875 0.140625
vt 0.671875 0.15625
vt 0.609375 0.15625
vt 0.673828125 0.140625
vt 0.705078125 0.140625
vt 0.705078125 0.15625
vt 0.673828125 0.15625
vt 0.70703125 0.140625
vt 0.73828125 0.140625
vt 0.73828125 0.15625
vt 0.70703125 0.15625
vt 0.740234375 0.140625
vt 0.763671875 0.140625
vt 0.763671875 0.15625
vt 0.740234375 0.15625
vt 0.765625 0.140625
vt 0.7890625 0.140625
vt 0.7890625 0.15625
vt 0.765625 0.15625
vt 0.791015625 0.140625
vt 0.814453125 0.140625
vt 0.814453125 0.15625
vt 0.791015625 0.15625
vt 0.81640625 0.140625
vt 0.83984375 0.140625
vt 0.83984375 0.15625
vt 0.81640625 0.15625
vt 0.841796875 0.140625
vt 0.857421875 0.140625
vt 0.857421875 0.15625
vt 0.841796875 0.15625
vt 0.859375 0.140625
vt 0.875 0.140625
vt 0.875 0.15625
vt 0.859375 0.15625
vt 0.876953125 0.140625
vt 0.900390625 0.140625
vt 0.900390625 0.15625
vt 0.876953125 0.15625
vt 0.90234375 0.140625
vt 0.92578125 0.140625
vt 0.92578125 0.15625
vt 0.90234375 0.15625
vt 0.927734375 0.140625
vt 0.951171875 0.140625
vt 0.951171875 0.15625
vt 0.927734375 0.15625
vt 0.953125 0.140625
vt 0.9765625 0.140625
vt 0.9765625 0.15625
vt 0.953125 0.15625
vt 0.978515625 0.140625
vt 0.994140625 0.140625
vt 0.994140625 0.15625
vt 0.978515625 0.15625
vt 0.00390625 0.173828125
vt 0.01953125 0.173828125
vt 0.01953125 0.189453125
vt 0.00390625 0.189453125
vt 0.021484375 0.173828125
vt 0.083984375 0.173828125
vt 0.083984375 0.205078125
vt 0.021484375 0.205078125
vt 0.0859375 0.173828125
vt 0.1484375 0.173828125
vt 0.1484375 0.205078125
vt 0.0859375 0.205078125
vt 0.150390625 0.173828125
vt 0.212890625 0.173828125
vt 0.212890625 0.189453125
vt 0.150390625 0.189453125
vt 0.21484375 0.173828125
vt 0.27734375 0.173828125
vt 0.27734375 0.189453125
vt 0.21484375 0.189453125
vt 0.279296875 0.173828125
vt 0.310546875 0.173828125
vt 0.310546875 0.189453125
vt 0.279296875 0.189453125
vt 0.3125 0.173828125
vt 0.34375 0.173828125
vt 0.34375 0.189453125
vt 0.3125 0.189453125
vt 0.345703125 0.173828125
vt 0.369140625 0.173828125
vt 0.369140625 0.189453125
vt 0.345703125 0.189453125
vt 0.37109375 0.173828125
vt 0.39453125 0.173828125
vt 0.39453125 0.189453125
vt 0.37109375 0.189453125
vt 0.396484375 0.173828125
vt 0.419921875 0.173828125
vt 0.419921875 0.189453125
vt 0.396484375 0.189453125
vt 0.421875 0.173828125
vt 0.4453125 0.173828125
vt 0.4453125 0.189453125
vt 0.421875 0.189453125
vt 0.447265625 0.173828125
vt 0.462890625 0.173828125
vt 0.462890625 0.189453125
vt 0.447265625 0.189453125
vt 0.46484375 0.173828125
vt 0.48046875 0.173828125
vt 0.48046875 0.189453125
vt 0.46484375 0.189453125
vt 0.482421875 0.173828125
vt 0.505859375 0.173828125
vt 0.505859375 0.189453125
vt 0.482421875 0.189453125
vt 0.5078125 0.173828125
vt 0.53125 0.173828125
vt 0.53125 0.189453125
vt 0.5078125 0.189453125
vt 0.533203125 0.173828125
vt 0.556640625 0.173828125
vt 0.556640625 0.189453125
vt 0.533203125 0.189453125
vt 0.55859375 0.173828125
vt 0.58203125 0.173828125
vt 0.58203125 0.189453125
vt 0.55859375 0.189453125
vt 0.583984375 0.173828125
vt 0.599609375 0.173828125
vt 0.599609375 0.189453125
vt 0.583984375 0.189453125
vt 0.6015625 0.173828125
vt 0.6171875 0.173828125
vt 0.6171875 0.189453125
vt 0.6015625 0.189453125
vt 0.619140625 0.173828125
vt 0.677734375 0.173828125
vt 0.677734375 0.232421875
vt 0.619140625 0.232421875
vt 0.6796875 0.173828125
vt 0.73828125 0.173828125
vt 0.73828125 0.232421875
vt 0.6796875 0.232421875
vt 0.740234375 0.173828125
vt 0.787109375 0.173828125
vt 0.787109375 0.220703125
vt 0.740234375 0.220703125
vt 0.7890625 0.173828125
vt 0.8359375 0.173828125
vt 0.8359375 0.220703125
vt 0.7890625 0.220703125
vt 0.837890625 0.173828125
vt 0.853515625 0.173828125
vt 0.853515625 0.185546875
vt 0.837890625 0.185546875
vt 0.85546875 0.173828125
vt 0.87109375 0.173828125
vt 0.87109375 0.185546875
vt 0.85546875 0.185546875
vt 0.873046875 0.173828125
vt 0.888671875 0.173828125
vt 0.888671875 0.18359375
vt 0.873046875 0.18359375
vt 0.890625 0.173828125
vt 0.90625 0.173828125
vt 0.90625 0.189453125
vt 0.890625 0.189453125
vt 0.908203125 0.173828125
vt 0.923828125 0.173828125
vt 0.923828125 0.18359375
vt 0.908203125 0.18359375
vt 0.92578125 0.173828125
vt 0.94140625 0.173828125
vt 0.94140625 0.189453125
vt 0.92578125 0.189453125
vt 0.943359375 0.173828125
vt 0.958984375 0.173828125
vt 0.958984375 0.18359375
vt 0.943359375 0.18359375
vt 0.9609375 0.173828125
vt 0.9765625 0.173828125
vt 0.9765625 0.189453125
vt 0.9609375 0.189453125
vt 0.978515625 0.173828125
vt 0.994140625 0.173828125
vt 0.994140625 0.18359375
vt 0.978515625 0.18359375
vt 0.00390625 0.234375
vt 0.01953125 0.234375
vt 0.01953125 0.25
vt 0.00390625 0.25
vt 0.021484375 0.234375
vt 0.046875 0.234375
vt 0.046875 0.244140625
vt 0.048828125 0.234375
vt 0.07421875 0.234375
vt 0.07421875 0.244140625
vt 0.076171875 0.234375
vt 0.111328125 0.234375
vt 0.111328125 0.244140625
vt 0.11328125 0.234375
vt 0.1484375 0.234375
vt 0.1484375 0.244140625
vt 0.150390625 0.234375
vt 0.185546875 0.234375
vt 0.185546875 0.25
vt 0.1875 0.234375
vt 0.22265625 0.234375
vt 0.22265625 0.25
vt 0.224609375 0.234375
vt 0.259765625 0.234375
vt 0.259765625 0.259765625
vt 0.26171875 0.234375
vt 0.296875 0.234375
vt 0.296875 0.259765625
vt 0.298828125 0.234375
vt 0.32421875 0.234375
vt 0.32421875 0.259765625
vt 0.326171875 0.234375
vt 0.3515625 0.234375
vt 0.3515625 0.259765625
vt 0.353515625 0.234375
vt 0.37890625 0.234375
vt 0.37890625 0.244140625
vt 0.380859375 0.234375
vt 0.40625 0.234375
vt 0.40625 0.244140625
vt 0.408203125 0.234375
vt 0.470703125 0.234375
vt 0.470703125 0.25
vt 0.408203125 0.25
vt 0.47265625 0.234375
vt 0.53515625 0.234375
vt 0.53515625 0.25
vt 0.47265625 0.25
vt 0.537109375 0.234375
vt 0.599609375 0.234375
vt 0.599609375 0.23828125
vt 0.537109375 0.23828125
vt 0.6015625 0.234375
vt 0.6640625 0.234375
vt 0.6640625 0.23828125
vt 0.6015625 0.23828125
vt 0.666015625 0.234375
vt 0.681640625 0.234375
vt 0.681640625 0.23828125
vt 0.666015625 0.23828125
vt 0.68359375 0.234375
vt 0.69921875 0.234375
vt 0.69921875 0.23828125
vt 0.68359375 0.23828125
vt 0.701171875 0.234375
vt 0.763671875 0.234375
vt 0.763671875 0.25
vt 0.701171875 0.25
vt 0.765625 0.234375
vt 0.828125 0.234375
vt 0.828125 0.25
vt 0.765625 0.25
vt 0.830078125 0.234375
vt 0.892578125 0.234375
vt 0.892578125 0.23828125
vt 0.830078125 0.23828125
vt 0.89453125 0.234375
vt 0.95703125 0.234375
vt 0.95703125 0.23828125
vt 0.89453125 0.23828125
vt 0.958984375 0.234375
vt 0.974609375 0.234375
vt 0.974609375 0.23828125
vt 0.958984375 0.23828125
vt 0.9765625 0.234375
vt 0.9921875 0.234375
vt 0.9921875 0.23828125
vt 0.9765625 0.23828125
vt 0.00390625 0.26171875
vt 0.0625 0.26171875
vt 0.0625 0.3203125
vt 0.00390625 0.3203125
vt 0.064453125 0.26171875
vt 0.123046875 0.26171875
vt 0.123046875 0.3203125
vt 0.064453125 0.3203125
vt 0.125 0.26171875
vt 0.171875 0.26171875
vt 0.171875 0.30859375
vt 0.125 0.30859375
vt 0.173828125 0.26171875
vt 0.220703125 0.26171875
vt 0.220703125 0.30859375
vt 0.173828125 0.30859375
vt 0.22265625 0.26171875
vt 0.23828125 0.26171875
vt 0.23828125 0.2734375
vt 0.22265625 0.2734375
vt 0.240234375 0.26171875
vt 0.255859375 0.26171875
vt 0.255859375 0.2734375
vt 0.240234375 0.2734375
vt 0.2578125 0.26171875
vt 0.2734375 0.26171875
vt 0.2734375 0.271484375
vt 0.2578125 0.271484375
vt 0.275390625 0.26171875
vt 0.291015625 0.26171875
vt 0.291015625 0.27734375
vt 0.275390625 0.27734375
vt 0.29296875 0.26171875
vt 0.30859375 0.26171875
vt 0.30859375 0.271484375
vt 0.29296875 0.271484375
vt 0.310546875 0.26171875
vt 0.326171875 0.26171875
vt 0.326171875 0.27734375
vt 0.310546875 0.27734375
vt 0.328125 0.26171875
vt 0.34375 0.26171875
vt 0.34375 0.271484375
vt 0.328125 0.271484375
vt 0.345703125 0.26171875
vt 0.361328125 0.26171875
vt 0.361328125 0.27734375
vt 0.345703125 0.27734375
vt 0.36328125 0.26171875
vt 0.37890625 0.26171875
vt 0.37890625 0.271484375
vt 0.36328125 0.271484375
vt 0.380859375 0.26171875
vt 0.396484375 0.26171875
vt 0.396484375 0.27734375
vt 0.380859375 0.27734375
vt 0.3984375 0.26171875
vt 0.423828125 0.26171875
vt 0.423828125 0.271484375
vt 0.42578125 0.26171875
vt 0.451171875 0.26171875
vt 0.451171875 0.271484375
vt 0.453125 0.26171875
vt 0.48828125 0.26171875
vt 0.48828125 0.271484375
vt 0.490234375 0.26171875
vt 0.525390625 0.26171875
vt 0.525390625 0.271484375
vt 0.52734375 0.26171875
vt 0.5625 0.26171875
vt 0.5625 0.27734375
vt 0.564453125 0.26171875
vt 0.599609375 0.26171875
vt 0.599609375 0.27734375
vt 0.6015625 0.26171875
vt 0.63671875 0.26171875
vt 0.63671875 0.287109375
vt 0.638671875 0.26171875
vt 0.673828125 0.26171875
vt 0.673828125 0.287109375
vt 0.67578125 0.26171875
vt 0.701171875 0.26171875
vt 0.701171875 0.287109375
vt 0.703125 0.26171875
vt 0.728515625 0.26171875
vt 0.728515625 0.287109375
vt 0.73046875 0.26171875
vt 0.755859375 0.26171875
vt 0.755859375 0.271484375
vt 0.7578125 0.26171875
vt 0.783203125 0.26171875
vt 0.783203125 0.271484375
vt 0.78515625 0.26171875
vt 0.84765625 0.26171875
vt 0.84765625 0.27734375
vt 0.78515625 0.27734375
vt 0.849609375 0.26171875
vt 0.912109375 0.26171875
vt 0.912109375 0.27734375
vt 0.849609375 0.27734375
vt 0.9140625 0.26171875
vt 0.9765625 0.26171875
vt 0.9765625 0.265625
vt 0.9140625 0.265625
vt 0.00390625 0.322265625
vt 0.06640625 0.322265625
vt 0.06640625 0.326171875
vt 0.00390625 0.326171875
vt 0.068359375 0.322265625
vt 0.083984375 0.322265625
vt 0.083984375 0.326171875
vt 0.068359375 0.326171875
vt 0.0859375 0.322265625
vt 0.1015625 0.322265625
vt 0.1015625 0.326171875
vt 0.0859375 0.326171875
vt 0.103515625 0.322265625
vt 0.166015625 0.322265625
vt 0.166015625 0.337890625
vt 0.103515625 0.337890625
vt 0.16796875 0.322265625
vt 0.23046875 0.322265625
vt 0.23046875 0.337890625
vt 0.16796875 0.337890625
vt 0.232421875 0.322265625
vt 0.294921875 0.322265625
vt 0.294921875 0.326171875
vt 0.232421875 0.326171875
vt 0.296875 0.322265625
vt 0.359375 0.322265625
vt 0.359375 0.326171875
vt 0.296875 0.326171875
vt 0.361328125 0.322265625
vt 0.376953125 0.322265625
vt 0.376953125 0.326171875
vt 0.361328125 0.326171875
vt 0.37890625 0.322265625
vt 0.39453125 0.322265625
vt 0.39453125 0.326171875
vt 0.37890625 0.326171875
vt 0.396484375 0.322265625
vt 0.455078125 0.322265625
vt 0.455078125 0.380859375
vt 0.396484375 0.380859375
vt 0.45703125 0.322265625
vt 0.515625 0.322265625
vt 0.515625 0.380859375
vt 0.45703125 0.380859375
vt 0.517578125 0.322265625
vt 0.564453125 0.322265625
vt 0.564453125 0.369140625
vt 0.517578125 0.369140625
vt 0.56640625 0.322265625
vt 0.61328125 0.322265625
vt 0.61328125 0.369140625
vt 0.56640625 0.369140625
vt 0.615234375 0.322265625
vt 0.630859375 0.322265625
vt 0.630859375 0.333984375
vt 0.615234375 0.333984375
vt 0.6328125 0.322265625
vt 0.6484375 0.322265625
vt 0.6484375 0.333984375
vt 0.6328125 0.333984375
vt 0.650390625 0.322265625
vt 0.666015625 0.322265625
vt 0.666015625 0.33203125
vt 0.650390625 0.33203125
vt 0.66796875 0.322265625
vt 0.68359375 0.322265625
vt 0.68359375 0.337890625
vt 0.66796875 0.337890625
vt 0.685546875 0.322265625
vt 0.701171875 0.322265625
vt 0.701171875 0.33203125
vt 0.685546875 0.33203125
vt 0.703125 0.322265625
vt 0.71875 0.322265625
vt 0.71875 0.337890625
vt 0.703125 0.337890625
vt 0.720703125 0.322265625
vt 0.736328125 0.322265625
vt 0.736328125 0.33203125
vt 0.720703125 0.33203125
vt 0.73828125 0.322265625
vt 0.75390625 0.322265625
vt 0.75390625 0.337890625
vt 0.73828125 0.337890625
vt 0.755859375 0.322265625
vt 0.771484375 0.322265625
vt 0.771484375 0.33203125
vt 0.755859375 0.33203125
vt 0.7734375 0.322265625
vt 0.7890625 0.322265625
vt 0.7890625 0.337890625
vt 0.7734375 0.337890625
vt 0.791015625 0.322265625
vt 0.81640625 0.322265625
vt 0.81640625 0.33203125
vt 0.818359375 0.322265625
vt 0.84375 0.322265625
vt 0.84375 0.33203125
vt 0.845703125 0.322265625
vt 0.880859375 0.322265625
vt 0.880859375 0.33203125
vt 0.8828125 0.322265625
vt 0.91796875 0.322265625
vt 0.91796875 0.33203125
vt 0.919921875 0.322265625
vt 0.955078125 0.322265625
vt 0.955078125 0.337890625
vt 0.95703125 0.322265625
vt 0.9921875 0.322265625
vt 0.9921875 0.337890625
vt 0.00390625 0.3828125
vt 0.0390625 0.3828125
vt 0.0390625 0.408203125
vt 0.041015625 0.3828125
vt 0.076171875 0.3828125
vt 0.076171875 0.408203125
vt 0.078125 0.3828125
vt 0.103515625 0.3828125
vt 0.103515625 0.408203125
vt 0.10546875 0.3828125
vt 0.130859375 0.3828125
vt 0.130859375 0.408203125
vt 0.1328125 0.3828125
vt 0.158203125 0.3828125
vt 0.158203125 0.392578125
vt 0.16015625 0.3828125
vt 0.185546875 0.3828125
vt 0.185546875 0.392578125
vt 0.1875 0.3828125
vt 0.25 0.3828125
vt 0.25 0.3984375
vt 0.1875 0.3984375
vt 0.251953125 0.3828125
vt 0.314453125 0.3828125
vt 0.314453125 0.3984375
vt 0.251953125 0.3984375
vt 0.31640625 0.3828125
vt 0.37890625 0.3828125
vt 0.37890625 0.38671875
vt 0.31640625 0.38671875
vt 0.380859375 0.3828125
vt 0.443359375 0.3828125
vt 0.443359375 0.38671875
vt 0.380859375 0.38671875
vt 0.4453125 0.3828125
vt 0.4609375 0.3828125
vt 0.4609375 0.38671875
vt 0.4453125 0.38671875
vt 0.462890625 0.3828125
vt 0.478515625 0.3828125
vt 0.478515625 0.38671875
vt 0.462890625 0.38671875
vt 0.48046875 0.3828125
vt 0.54296875 0.3828125
vt 0.54296875 0.3984375
vt 0.48046875 0.3984375
vt 0.544921875 0.3828125
vt 0.607421875 0.3828125
vt 0.607421875 0.3984375
vt 0.544921875 0.3984375
vt 0.609375 0.3828125
vt 0.671875 0.3828125
vt 0.671875 0.38671875
vt 0.609375 0.38671875
vt 0.673828125 0.3828125
vt 0.736328125 0.3828125
vt 0.736328125 0.38671875
vt 0.673828125 0.38671875
vt 0.73828125 0.3828125
vt 0.75390625 0.3828125
vt 0.75390625 0.38671875
vt 0.73828125 0.38671875
vt 0.755859375 0.3828125
vt 0.771484375 0.3828125
vt 0.771484375 0.38671875
vt 0.755859375 0.38671875
vt 0.7734375 0.3828125
vt 0.83203125 0.3828125
vt 0.83203125 0.44140625
vt 0.7734375 0.44140625
vt 0.833984375 0.3828125
vt 0.892578125 0.3828125
vt 0.892578125 0.44140625
vt 0.833984375 0.44140625
vt 0.89453125 0.3828125
vt 0.94140625 0.3828125
vt 0.94140625 0.4296875
vt 0.89453125 0.4296875
vt 0.943359375 0.3828125
vt 0.990234375 0.3828125
vt 0.990234375 0.4296875
vt 0.943359375 0.4296875
vt 0.00390625 0.443359375
vt 0.01953125 0.443359375
vt 0.01953125 0.455078125
vt 0.00390625 0.455078125
vt 0.021484375 0.443359375
vt 0.037109375 0.443359375
vt 0.037109375 0.455078125
vt 0.021484375 0.455078125
vt 0.0390625 0.443359375
vt 0.0546875 0.443359375
vt 0.0546875 0.453125
vt 0.0390625 0.453125
vt 0.056640625 0.443359375
vt 0.072265625 0.443359375
vt 0.072265625 0.458984375
vt 0.056640625 0.458984375
vt 0.07421875 0.443359375
vt 0.08984375 0.443359375
vt 0.08984375 0.453125
vt 0.07421875 0.453125
vt 0.091796875 0.443359375
vt 0.107421875 0.443359375
vt 0.107421875 0.458984375
vt 0.091796875 0.458984375
vt 0.109375 0.443359375
vt 0.125 0.443359375
vt 0.125 0.453125
vt 0.109375 0.453125
vt 0.126953125 0.443359375
vt 0.142578125 0.443359375
vt 0.142578125 0.458984375
vt 0.126953125 0.458984375
vt 0.14453125 0.443359375
vt 0.16015625 0.443359375
vt 0.16015625 0.453125
vt 0.14453125 0.453125
vt 0.162109375 0.443359375
vt 0.177734375 0.443359375
vt 0.177734375 0.458984375
vt 0.162109375 0.458984375
vt 0.1796875 0.443359375
vt 0.205078125 0.443359375
vt 0.205078125 0.453125
vt 0.20703125 0.443359375
vt 0.232421875 0.443359375
vt 0.232421875 0.453125
vt 0.234375 0.443359375
vt 0.26953125 0.443359375
vt 0.26953125 0.453125
vt 0.271484375 0.443359375
vt 0.306640625 0.443359375
vt 0.306640625 0.453125
vt 0.30859375 0.443359375
vt 0.34375 0.443359375
vt 0.34375 0.458984375
vt 0.345703125 0.443359375
vt 0.380859375 0.443359375
vt 0.380859375 0.458984375
vt 0.3828125 0.443359375
vt 0.41796875 0.443359375
vt 0.41796875 0.46875
vt 0.419921875 0.443359375
vt 0.455078125 0.443359375
vt 0.455078125 0.46875
vt 0.45703125 0.443359375
vt 0.482421875 0.443359375
vt 0.482421875 0.46875
vt 0.484375 0.443359375
vt 0.509765625 0.443359375
vt 0.509765625 0.46875
vt 0.51171875 0.443359375
vt 0.537109375 0.443359375
vt 0.537109375 0.453125
vt 0.5390625 0.443359375
vt 0.564453125 0.443359375
vt 0.564453125 0.453125
vt 0.56640625 0.443359375
vt 0.62890625 0.443359375
vt 0.62890625 0.458984375
vt 0.56640625 0.458984375
vt 0.630859375 0.443359375
vt 0.693359375 0.443359375
vt 0.693359375 0.458984375
vt 0.630859375 0.458984375
vt 0.6953125 0.443359375
vt 0.7578125 0.443359375
vt 0.7578125 0.447265625
vt 0.6953125 0.447265625
vt 0.759765625 0.443359375
vt 0.822265625 0.443359375
vt 0.822265625 0.447265625
vt 0.759765625 0.447265625
vt 0.82421875 0.443359375
vt 0.83984375 0.443359375
vt 0.83984375 0.447265625
vt 0.82421875 0.447265625
vt 0.841796875 0.443359375
vt 0.857421875 0.443359375
vt 0.857421875 0.447265625
vt 0.841796875 0.447265625
vt 0.859375 0.443359375
vt 0.921875 0.443359375
vt 0.921875 0.458984375
vt 0.859375 0.458984375
vt 0.923828125 0.443359375
vt 0.986328125 0.443359375
vt 0.986328125 0.458984375
vt 0.923828125 0.458984375
vt 0.00390625 0.470703125
vt 0.06640625 0.470703125
vt 0.06640625 0.474609375
vt 0.00390625 0.474609375
vt 0.068359375 0.470703125
vt 0.130859375 0.470703125
vt 0.130859375 0.474609375
vt 0.068359375 0.474609375
vt 0.1328125 0.470703125
vt 0.1484375 0.470703125
vt 0.1484375 0.474609375
vt 0.1328125 0.474609375
vt 0.150390625 0.470703125
vt 0.166015625 0.470703125
vt 0.166015625 0.474609375
vt 0.150390625 0.474609375
vn 0 0 -1
vn 0 0 1
vn 0 -1 0
vn 0 1 0
vn -0.99719931 0 -0.0747899482
vn 0.99719931 0 -0.0747899482
vn 0 0 -1
vn 0 0 1
vn 0 -1 0
vn 0 1 0
vn -0.993605255 0 -0.112909688
vn 0.993605255 0 -0.112909688
vn 0 0 -1
vn 0 0 1
vn 0 -1 0
vn 0 1 0
vn -0.996545758 0 -0.0830454799
vn 0.996545758 0 -0.0830454799
vn 0 0 -1
vn 0 0 1
vn 0 -1 0
vn 0 1 0
vn -0.9701425 0 -0.242535625
vn 0.9701425 0 -0.242535625
vn 0 0 -1
vn 0 0 1
vn 0 -1 0
vn 0 1 0
vn -0.948683298 0 -0.316227766
vn 0.948683298 0 -0.316227766
vn 0 -1 0
vn 0 1 0
vn 0 0 -1
vn 0 0 1
vn 1 0 0
vn -1 0 0
vn 0 -1 0
vn 0 1 0
vn 0 0 -1
vn 0 0 1
vn 1 0 0
vn -1 0 0
vn 0 -1 0
vn 0 1 0
vn 0 0 1
vn 0 0 -1
vn -1 0 0
vn 1 0 0
vn 0 0 -1
vn 0 0 1
vn -1 0 0
vn 1 0 0
vn 0 1 0
vn 0 -1 0
vn 0 0 -1
vn 0 0 1
vn -1 0 0
vn 1 0 0
vn 0 1 0
vn 0 -1 0
vn 0 -1 0
vn 0 1 0
vn -1 0 0
vn 1 0 0
vn 0 0 -1
vn 0 0 1
vn 0 0 -1
vn 0 0 1
vn -1 0 0
vn 1 0 0
vn 0 1 0
vn 0 -1 0
vn 0 0 -1
vn 0 0 1
vn -1 0 0
vn 1 0 0
vn 0 1 0
vn 0 -1 0
vn 0 -1 0
vn 0 1 0
vn -1 0 0
vn 1 0 0
vn 0 0 -1
vn 0 0 1
vn 0 0 -1
vn 0 0 1
vn -1 0 0
vn 1 0 0
vn 0 1 0
vn 0 -1 0
vn 0 0 -1
vn 0 0 1
vn -1 0 0
vn 1 0 0
vn 0 1 0
vn 0 -1 0
vn 0 -1 0
vn 0 1 0
vn 0.707106781 0 0.707106781
vn -0.707106781 0 -0.707106781
vn -0.707106781 0 0.707106781
vn 0.707106781 0 -0.707106781
vn 0.707106781 0 0.707106781
vn 0 0 1
vn -0.707106781 0 0.707106781
vn -1 0 0
vn -0.707106781 0 -0.707106781
vn 0 0 -1
vn 0.707106781 0 -0.707106781
vn 1 0 0
vn 0 -1 0
vn 0 1 0
vn 0 -1 0
vn 0 1 0
vn 0 -1 0
vn 0 1 0
vn 0 -1 0
vn 0 1 0
vn 0 -1 0
vn 0 1 0
vn 0 -1 0
vn 0 1 0
vn 0 -1 0
vn 0 1 0
vn 1 0 0
vn -1 0 0
vn 0 0 1
vn 0 0 -1
vn 0 -1 0
vn 0 1 0
vn 0 0 -1
vn 0 0 1
vn 1 0 0
vn -1 0 0
vn 0 -1 0
vn 0 1 0
vn -0.707106781 0 0.707106781
vn 0.707106781 0 -0.707106781
vn -0.707106781 0 -0.707106781
vn 0.707106781 0 0.707106781
vn -0.707106781 0 0.707106781
vn -1 0 0
vn -0.707106781 0 -0.707106781
vn 0 0 -1
vn 0.707106781 0 -0.707106781
vn 1 0 0
vn 0.707106781 0 0.707106781
vn 0 0 1
vn 0 -1 0
vn 0 1 0
vn 0 -1 0
vn 0 1 0
vn 0 -1 0
vn 0 1 0
vn 0 -1 0
vn 0 1 0
vn 0 -1 0
vn 0 1 0
vn 0 -1 0
vn 0 1 0
vn 0 -1 0
vn 0 1 0
vn 0 0 1
vn 0 0 -1
vn -1 0 0
vn 1 0 0
vn 0 -1 0
vn 0 1 0
vn 1 0 0
vn -1 0 0
vn 0 0 1
vn 0 0 -1
vn 0 -1 0
vn 0 1 0
vn -0.707106781 0 -0.707106781
vn 0.707106781 0 0.707106781
vn 0.707106781 0 -0.707106781
vn -0.707106781 0 0.707106781
vn -0.707106781 0 -0.707106781
vn 0 0 -1
vn 0.707106781 0 -0.707106781
vn 1 0 0
vn 0.707106781 0 0.707106781
vn 0 0 1
vn -0.707106781 0 0.707106781
vn -1 0 0
vn 0 -1 0
vn 0 1 0
vn 0 -1 0
vn 0 1 0
vn 0 -1 0
vn 0 1 0
vn 0 -1 0
vn 0 1 0
vn 0 -1 0
vn 0 1 0
vn 0 -1 0
vn 0 1 0
vn 0 -1 0
vn 0 1 0
vn -1 0 0
vn 1 0 0
vn 0 0 -1
vn 0 0 1
vn 0 -1 0
vn 0 1 0
vn 0 0 1
vn 0 0 -1
vn -1 0 0
vn 1 0 0
vn 0 -1 0
vn 0 1 0
vn 0.707106781 0 -0.707106781
vn -0.707106781 0 0.707106781
vn 0.707106781 0 0.707106781
vn -0.707106781 0 -0.707106781
vn 0.707106781 0 -0.707106781
vn 1 0 0
vn 0.707106781 0 0.707106781
vn 0 0 1
vn -0.707106781 0 0.707106781
vn -1 0 0
vn -0.707106781 0 -0.707106781
vn 0 0 -1
vn 0 -1 0
vn 0 1 0
vn 0 -1 0
vn 0 1 0
vn 0 -1 0
vn 0 1 0
vn 0 -1 0
vn 0 1 0
vn 0 -1 0
vn 0 1 0
vn 0 -1 0
vn 0 1 0
vn 0 -1 0
vn 0 1 0
vn 0 0 -1
vn 0 0 1
vn 1 0 0
vn -1 0 0
vn 0 -1 0
vn 0 1 0
vn -1 0 0
vn 1 0 0
vn 0 0 -1
vn 0 0 1
# pivot: 0 0 0
g frame
usemtl drone_mat
f 1/1/1 2/2/1 3/3/1 4/4/1
f 5/5/2 6/6/2 7/7/2 8/8/2
f 9/9/3 10/10/3 11/11/3 12/12/3
f 13/13/4 14/14/4 15/15/4 16/16/4
f 17/17/5 18/18/5 19/19/5 20/20/5
f 21/21/6 22/22/6 23/23/6 24/24/6
f 25/25/7 26/26/7 27/27/7 28/28/7
f 29/29/8 30/30/8 31/31/8 32/32/8
f 33/33/9 34/34/9 35/35/9 36/36/9
f 37/37/10 38/38/10 39/39/10 40/40/10
f 41/41/11 42/42/11 43/43/11 44/44/11
f 45/45/12 46/46/12 47/47/12 48/48/12
f 49/49/13 50/50/13 51/51/13 52/52/13
f 53/53/14 54/54/14 55/55/14 56/56/14
f 57/57/15 58/58/15 59/59/15 60/60/15
f 61/61/16 62/62/16 63/63/16 64/64/16
f 65/65/17 66/66/17 67/67/17 68/68/17
f 69/69/18 70/70/18 71/71/18 72/72/18
# pivot: 0 0 0
g canopy
usemtl drone_mat
f 73/73/19 74/74/19 75/75/19 76/76/19
f 77/77/20 78/78/20 79/79/20 80/80/20
f 81/81/21 82/82/21 83/83/21 84/84/21
f 85/85/22 86/86/22 87/87/22 88/88/22
f 89/89/23 90/90/23 91/91/23 92/92/23
f 93/93/24 94/94/24 95/95/24 96/96/24
# pivot: 0 0 0
g nose_sensor
usemtl drone_mat
f 97/97/25 98/98/25 99/99/25 100/100/25
f 101/101/26 102/102/26 103/103/26 104/104/26
f 105/105/27 106/106/27 107/107/27 108/108/27
f 109/109/28 110/110/28 111/111/28 112/112/28
f 113/113/29 114/114/29 115/115/29 116/116/29
f 117/117/30 118/118/30 119/119/30 120/120/30
# pivot: 0 0.0625 0.0625
g antenna
usemtl drone_mat
f 121/121/31 122/122/31 123/123/31 124/124/31
f 125/125/32 126/126/32 127/127/32 128/128/32
f 129/129/33 130/130/33 131/131/33 132/132/33
f 133/133/34 134/134/34 135/135/34 136/136/34
f 137/137/35 138/138/35 139/139/35 140/140/35
f 141/141/36 142/142/36 143/143/36 144/144/36
f 145/145/37 146/146/37 147/147/37 148/148/37
f 149/149/38 150/150/38 151/151/38 152/152/38
f 153/153/39 154/154/39 155/155/39 156/156/39
f 157/157/40 158/158/40 159/159/40 160/160/40
f 161/161/41 162/162/41 163/163/41 164/164/41
f 165/165/42 166/166/42 167/167/42 168/168/42
# pivot: 0 -0.15625 -0.125
g gimbal_yoke
usemtl drone_mat
f 169/169/43 170/170/43 171/171/43 172/172/43
f 173/173/44 174/174/44 175/175/44 176/176/44
f 177/177/45 178/178/45 179/179/45 180/180/45
f 181/181/46 182/182/46 183/183/46 184/184/46
f 185/185/47 186/186/47 187/187/47 188/188/47
f 189/189/48 190/190/48 191/191/48 192/192/48
f 193/193/49 194/194/49 195/195/49 196/196/49
f 197/197/50 198/198/50 199/199/50 200/200/50
f 201/201/51 202/202/51 203/203/51 204/204/51
f 205/205/52 206/206/52 207/207/52 208/208/52
f 209/209/53 210/210/53 211/211/53 212/212/53
f 213/213/54 214/214/54 215/215/54 216/216/54
f 217/217/55 218/218/55 219/219/55 220/220/55
f 221/221/56 222/222/56 223/223/56 224/224/56
f 225/225/57 226/226/57 227/227/57 228/228/57
f 229/229/58 230/230/58 231/231/58 232/232/58
f 233/233/59 234/234/59 235/235/59 236/236/59
f 237/237/60 238/238/60 239/239/60 240/240/60
# pivot: 0.125 -0.0625 0
g skid_l
usemtl drone_mat
f 241/241/61 242/242/61 243/243/61 244/244/61
f 245/245/62 246/246/62 247/247/62 248/248/62
f 249/249/63 250/250/63 251/251/63 252/252/63
f 253/253/64 254/254/64 255/255/64 256/256/64
f 257/257/65 258/258/65 259/259/65 260/260/65
f 261/261/66 262/262/66 263/263/66 264/264/66
f 265/265/67 266/266/67 267/267/67 268/268/67
f 269/269/68 270/270/68 271/271/68 272/272/68
f 273/273/69 274/274/69 275/275/69 276/276/69
f 277/277/70 278/278/70 279/279/70 280/280/70
f 281/281/71 282/282/71 283/283/71 284/284/71
f 285/285/72 286/286/72 287/287/72 288/288/72
f 289/289/73 290/290/73 291/291/73 292/292/73
f 293/293/74 294/294/74 295/295/74 296/296/74
f 297/297/75 298/298/75 299/299/75 300/300/75
f 301/301/76 302/302/76 303/303/76 304/304/76
f 305/305/77 306/306/77 307/307/77 308/308/77
f 309/309/78 310/310/78 311/311/78 312/312/78
# pivot: -0.125 -0.0625 0
g skid_r
usemtl drone_mat
f 313/313/79 314/314/79 315/315/79 316/316/79
f 317/317/80 318/318/80 319/319/80 320/320/80
f 321/321/81 322/322/81 323/323/81 324/324/81
f 325/325/82 326/326/82 327/327/82 328/328/82
f 329/329/83 330/330/83 331/331/83 332/332/83
f 333/333/84 334/334/84 335/335/84 336/336/84
f 337/337/85 338/338/85 339/339/85 340/340/85
f 341/341/86 342/342/86 343/343/86 344/344/86
f 345/345/87 346/346/87 347/347/87 348/348/87
f 349/349/88 350/350/88 351/351/88 352/352/88
f 353/353/89 354/354/89 355/355/89 356/356/89
f 357/357/90 358/358/90 359/359/90 360/360/90
f 361/361/91 362/362/91 363/363/91 364/364/91
f 365/365/92 366/366/92 367/367/92 368/368/92
f 369/369/93 370/370/93 371/371/93 372/372/93
f 373/373/94 374/374/94 375/375/94 376/376/94
f 377/377/95 378/378/95 379/379/95 380/380/95
f 381/381/96 382/382/96 383/383/96 384/384/96
# pivot: 0.125 0 -0.125
g arm0
usemtl drone_mat
f 385/385/97 386/386/97 387/387/97 388/388/97
f 389/389/98 390/390/98 391/391/98 392/392/98
f 393/393/99 394/394/99 395/395/99 396/396/99
f 397/397/100 398/398/100 399/399/100 400/400/100
f 401/401/101 402/402/101 403/403/101 404/404/101
f 405/405/102 406/406/102 407/407/102 408/408/102
# pivot: 0.25 0.09375 -0.25
g motor0
usemtl drone_mat
f 409/409/103 410/410/103 411/411/103 412/412/103
f 413/413/104 414/414/104 415/415/104 416/416/104
f 417/417/105 418/418/105 419/419/105 420/420/105
f 421/421/106 422/422/106 423/423/106 424/424/106
f 425/425/107 426/426/107 427/427/107 428/428/107
f 429/429/108 430/430/108 431/431/108 432/432/108
f 433/433/109 434/434/109 435/435/109 436/436/109
f 437/437/110 438/438/110 439/439/110 440/440/110
f 441/441/111 442/442/111 443/443/111
f 444/444/112 445/445/112 446/446/112
f 447/447/113 448/448/113 449/449/113
f 450/450/114 451/451/114 452/452/114
f 453/453/115 454/454/115 455/455/115
f 456/456/116 457/457/116 458/458/116
f 459/459/117 460/460/117 461/461/117
f 462/462/118 463/463/118 464/464/118
f 465/465/119 466/466/119 467/467/119
f 468/468/120 469/469/120 470/470/120
f 471/471/121 472/472/121 473/473/121
f 474/474/122 475/475/122 476/476/122
# pivot: 0.25 0.140625 -0.25
g rotor0
usemtl drone_mat
f 477/477/123 478/478/123 479/479/123 480/480/123
f 481/481/124 482/482/124 483/483/124 484/484/124
f 485/485/125 486/486/125 487/487/125 488/488/125
f 489/489/126 490/490/126 491/491/126 492/492/126
f 493/493/127 494/494/127 495/495/127 496/496/127
f 497/497/128 498/498/128 499/499/128 500/500/128
f 501/501/129 502/502/129 503/503/129 504/504/129
f 505/505/130 506/506/130 507/507/130 508/508/130
f 509/509/131 510/510/131 511/511/131 512/512/131
f 513/513/132 514/514/132 515/515/132 516/516/132
f 517/517/133 518/518/133 519/519/133 520/520/133
f 521/521/134 522/522/134 523/523/134 524/524/134
# pivot: 0.125 0 0.125
g arm1
usemtl drone_mat
f 525/525/135 526/526/135 527/527/135 528/528/135
f 529/529/136 530/530/136 531/531/136 532/532/136
f 533/533/137 534/534/137 535/535/137 536/536/137
f 537/537/138 538/538/138 539/539/138 540/540/138
f 541/541/139 542/542/139 543/543/139 544/544/139
f 545/545/140 546/546/140 547/547/140 548/548/140
# pivot: 0.25 0.09375 0.25
g motor1
usemtl drone_mat
f 549/549/141 550/550/141 551/551/141 552/552/141
f 553/553/142 554/554/142 555/555/142 556/556/142
f 557/557/143 558/558/143 559/559/143 560/560/143
f 561/561/144 562/562/144 563/563/144 564/564/144
f 565/565/145 566/566/145 567/567/145 568/568/145
f 569/569/146 570/570/146 571/571/146 572/572/146
f 573/573/147 574/574/147 575/575/147 576/576/147
f 577/577/148 578/578/148 579/579/148 580/580/148
f 581/581/149 582/582/149 583/583/149
f 584/584/150 585/585/150 586/586/150
f 587/587/151 588/588/151 589/589/151
f 590/590/152 591/591/152 592/592/152
f 593/593/153 594/594/153 595/595/153
f 596/596/154 597/597/154 598/598/154
f 599/599/155 600/600/155 601/601/155
f 602/602/156 603/603/156 604/604/156
f 605/605/157 606/606/157 607/607/157
f 608/608/158 609/609/158 610/610/158
f 611/611/159 612/612/159 613/613/159
f 614/614/160 615/615/160 616/616/160
# pivot: 0.25 0.140625 0.25
g rotor1
usemtl drone_mat
f 617/617/161 618/618/161 619/619/161 620/620/161
f 621/621/162 622/622/162 623/623/162 624/624/162
f 625/625/163 626/626/163 627/627/163 628/628/163
f 629/629/164 630/630/164 631/631/164 632/632/164
f 633/633/165 634/634/165 635/635/165 636/636/165
f 637/637/166 638/638/166 639/639/166 640/640/166
f 641/641/167 642/642/167 643/643/167 644/644/167
f 645/645/168 646/646/168 647/647/168 648/648/168
f 649/649/169 650/650/169 651/651/169 652/652/169
f 653/653/170 654/654/170 655/655/170 656/656/170
f 657/657/171 658/658/171 659/659/171 660/660/171
f 661/661/172 662/662/172 663/663/172 664/664/172
# pivot: -0.125 0 0.125
g arm2
usemtl drone_mat
f 665/665/173 666/666/173 667/667/173 668/668/173
f 669/669/174 670/670/174 671/671/174 672/672/174
f 673/673/175 674/674/175 675/675/175 676/676/175
f 677/677/176 678/678/176 679/679/176 680/680/176
f 681/681/177 682/682/177 683/683/177 684/684/177
f 685/685/178 686/686/178 687/687/178 688/688/178
# pivot: -0.25 0.09375 0.25
g motor2
usemtl drone_mat
f 689/689/179 690/690/179 691/691/179 692/692/179
f 693/693/180 694/694/180 695/695/180 696/696/180
f 697/697/181 698/698/181 699/699/181 700/700/181
f 701/701/182 702/702/182 703/703/182 704/704/182
f 705/705/183 706/706/183 707/707/183 708/708/183
f 709/709/184 710/710/184 711/711/184 712/712/184
f 713/713/185 714/714/185 715/715/185 716/716/185
f 717/717/186 718/718/186 719/719/186 720/720/186
f 721/721/187 722/722/187 723/723/187
f 724/724/188 725/725/188 726/726/188
f 727/727/189 728/728/189 729/729/189
f 730/730/190 731/731/190 732/732/190
f 733/733/191 734/734/191 735/735/191
f 736/736/192 737/737/192 738/738/192
f 739/739/193 740/740/193 741/741/193
f 742/742/194 743/743/194 744/744/194
f 745/745/195 746/746/195 747/747/195
f 748/748/196 749/749/196 750/750/196
f 751/751/197 752/752/197 753/753/197
f 754/754/198 755/755/198 756/756/198
# pivot: -0.25 0.140625 0.25
g rotor2
usemtl drone_mat
f 757/757/199 758/758/199 759/759/199 760/760/199
f 761/761/200 762/762/200 763/763/200 764/764/200
f 765/765/201 766/766/201 767/767/201 768/768/201
f 769/769/202 770/770/202 771/771/202 772/772/202
f 773/773/203 774/774/203 775/775/203 776/776/203
f 777/777/204 778/778/204 779/779/204 780/780/204
f 781/781/205 782/782/205 783/783/205 784/784/205
f 785/785/206 786/786/206 787/787/206 788/788/206
f 789/789/207 790/790/207 791/791/207 792/792/207
f 793/793/208 794/794/208 795/795/208 796/796/208
f 797/797/209 798/798/209 799/799/209 800/800/209
f 801/801/210 802/802/210 803/803/210 804/804/210
# pivot: -0.125 0 -0.125
g arm3
usemtl drone_mat
f 805/805/211 806/806/211 807/807/211 808/808/211
f 809/809/212 810/810/212 811/811/212 812/812/212
f 813/813/213 814/814/213 815/815/213 816/816/213
f 817/817/214 818/818/214 819/819/214 820/820/214
f 821/821/215 822/822/215 823/823/215 824/824/215
f 825/825/216 826/826/216 827/827/216 828/828/216
# pivot: -0.25 0.09375 -0.25
g motor3
usemtl drone_mat
f 829/829/217 830/830/217 831/831/217 832/832/217
f 833/833/218 834/834/218 835/835/218 836/836/218
f 837/837/219 838/838/219 839/839/219 840/840/219
f 841/841/220 842/842/220 843/843/220 844/844/220
f 845/845/221 846/846/221 847/847/221 848/848/221
f 849/849/222 850/850/222 851/851/222 852/852/222
f 853/853/223 854/854/223 855/855/223 856/856/223
f 857/857/224 858/858/224 859/859/224 860/860/224
f 861/861/225 862/862/225 863/863/225
f 864/864/226 865/865/226 866/866/226
f 867/867/227 868/868/227 869/869/227
f 870/870/228 871/871/228 872/872/228
f 873/873/229 874/874/229 875/875/229
f 876/876/230 877/877/230 878/878/230
f 879/879/231 880/880/231 881/881/231
f 882/882/232 883/883/232 884/884/232
f 885/885/233 886/886/233 887/887/233
f 888/888/234 889/889/234 890/890/234
f 891/891/235 892/892/235 893/893/235
f 894/894/236 895/895/236 896/896/236
# pivot: -0.25 0.140625 -0.25
g rotor3
usemtl drone_mat
f 897/897/237 898/898/237 899/899/237 900/900/237
f 901/901/238 902/902/238 903/903/238 904/904/238
f 905/905/239 906/906/239 907/907/239 908/908/239
f 909/909/240 910/910/240 911/911/240 912/912/240
f 913/913/241 914/914/241 915/915/241 916/916/241
f 917/917/242 918/918/242 919/919/242 920/920/242
f 921/921/243 922/922/243 923/923/243 924/924/243
f 925/925/244 926/926/244 927/927/244 928/928/244
f 929/929/245 930/930/245 931/931/245 932/932/245
f 933/933/246 934/934/246 935/935/246 936/936/246
f 937/937/247 938/938/247 939/939/247 940/940/247
f 941/941/248 942/942/248 943/943/248 944/944/248
